<svg xmlns="http://www.w3.org/2000/svg" width="1200" height="630" viewBox="0 0 1200 630">
  <defs>
    <pattern id="grid" width="24" height="24" patternUnits="userSpaceOnUse">
      <path d="M24 0H0V24" fill="none" stroke="#236b57" stroke-opacity=".07"/>
    </pattern>
    <filter id="shadow" x="-20%" y="-20%" width="140%" height="150%">
      <feDropShadow dx="0" dy="12" stdDeviation="16" flood-color="#183c31" flood-opacity=".12"/>
    </filter>
  </defs>

  <rect width="1200" height="630" fill="#f2f0e9"/>
  <rect width="1200" height="630" fill="url(#grid)"/>
  <rect x="28" y="28" width="1144" height="574" rx="30" fill="#fffdf8" stroke="#d8d4c8" stroke-width="2"/>
  <path d="M29 505h1142v67a30 30 0 0 1-30 30H59a30 30 0 0 1-30-30Z" fill="#e5f0ea"/>

  <g transform="translate(76 62)">
    <rect width="62" height="62" rx="16" fill="#e5f0ea" stroke="#b9d1c5"/>
    <image href="logo-rm-verde.png" x="10" y="10" width="42" height="42"/>
    <text x="80" y="27" fill="#20231f" font-family="Ubuntu, sans-serif" font-size="22" font-weight="700">rmdigital.net</text>
    <text x="80" y="49" fill="#697069" font-family="Ubuntu Mono, monospace" font-size="13">RENÉ MOYA · DESARROLLADOR Y MARKETER</text>
  </g>

  <g transform="translate(76 158)">
    <rect width="252" height="34" rx="17" fill="#e5f0ea" stroke="#c5dbd0"/>
    <circle cx="18" cy="17" r="5" fill="#d66032"/>
    <text x="33" y="22" fill="#236b57" font-family="Ubuntu Mono, monospace" font-size="12" font-weight="700" letter-spacing="1">SISTEMAS PARA NEGOCIOS REALES</text>
  </g>

  <text x="76" y="253" fill="#20231f" font-family="Ubuntu, sans-serif" font-size="58" font-weight="700" letter-spacing="-2">
    <tspan x="76" dy="0">Ordeno lo complejo</tspan>
    <tspan x="76" dy="67">para que tu negocio</tspan>
    <tspan x="76" dy="67">avance.</tspan>
  </text>

  <text x="78" y="474" fill="#5f665f" font-family="Ubuntu, sans-serif" font-size="20">
    Hojas de cálculo · Sistemas a medida · Publicidad digital
  </text>

  <g transform="translate(805 76)" filter="url(#shadow)">
    <rect width="310" height="390" rx="22" fill="#edf5f1" stroke="#b9d1c5" stroke-width="2"/>
    <path d="M0 55h310" stroke="#c9ddd3" stroke-width="2"/>
    <circle cx="24" cy="27" r="6" fill="#85b4a0"/>
    <circle cx="44" cy="27" r="6" fill="#e0b064"/>
    <circle cx="64" cy="27" r="6" fill="#d66032"/>
    <text x="90" y="33" fill="#697069" font-family="Ubuntu Mono, monospace" font-size="12">~/negocio/orden</text>

    <rect x="24" y="80" width="262" height="96" rx="14" fill="#236b57"/>
    <text x="45" y="117" fill="#cce5da" font-family="Ubuntu Mono, monospace" font-size="14">proceso_actual</text>
    <text x="45" y="151" fill="#ffffff" font-family="Ubuntu, sans-serif" font-size="25" font-weight="700">medir → mejorar</text>

    <rect x="24" y="195" width="125" height="74" rx="12" fill="#fffdf8" stroke="#c9ddd3"/>
    <text x="42" y="222" fill="#697069" font-family="Ubuntu Mono, monospace" font-size="11">TIEMPO</text>
    <text x="42" y="251" fill="#236b57" font-family="Ubuntu, sans-serif" font-size="24" font-weight="700">- fricción</text>

    <rect x="161" y="195" width="125" height="74" rx="12" fill="#fff2eb" stroke="#ebc9ba"/>
    <text x="179" y="222" fill="#916149" font-family="Ubuntu Mono, monospace" font-size="11">DATOS</text>
    <text x="179" y="251" fill="#d66032" font-family="Ubuntu, sans-serif" font-size="24" font-weight="700">+ control</text>

    <g transform="translate(24 296)">
      <path d="M0 48h262" stroke="#c9ddd3"/>
      <rect x="0" y="31" width="32" height="17" rx="4" fill="#a8ccbb"/>
      <rect x="42" y="20" width="32" height="28" rx="4" fill="#85b4a0"/>
      <rect x="84" y="8" width="32" height="40" rx="4" fill="#236b57"/>
      <rect x="126" y="25" width="32" height="23" rx="4" fill="#e0b064"/>
      <rect x="168" y="14" width="32" height="34" rx="4" fill="#d66032"/>
      <path d="M0 22 58 12l44-13 42 13 48-20 70-13" fill="none" stroke="#236b57" stroke-width="3" stroke-linecap="round" stroke-linejoin="round"/>
    </g>
  </g>

  <g transform="translate(76 545)">
    <circle cx="7" cy="7" r="7" fill="#3a9a72"/>
    <text x="25" y="13" fill="#236b57" font-family="Ubuntu Mono, monospace" font-size="14" font-weight="700">CON CALMA, CON ORDEN, SIN RELLENO.</text>
  </g>
  <text x="1117" y="559" text-anchor="end" fill="#697069" font-family="Ubuntu Mono, monospace" font-size="13">GUATEMALA · 2026</text>
</svg>
